<svg width="637" height="588" viewBox="0 0 637 588" fill="none" xmlns="http://www.w3.org/2000/svg">
<path d="M535.235 301.095C542.188 273.492 546.329 245.256 547.595 216.819C532.778 217.524 510.785 214.407 510.785 214.407C519.86 213.272 535.386 202.66 547.78 193.11C547.259 170.096 544.284 147.203 538.903 124.82C522.569 125.676 503.048 123.471 503.048 123.471C508.661 122.666 522.205 113.536 533.462 105.321C524.287 76.0144 511.146 48.0428 498.052 20.2244L497.987 20.3096C478.952 45.2096 459.79 70.3367 443.388 96.9842C452.796 106.965 464.243 118.596 470.078 122.574C470.078 122.574 449.564 121.61 432.956 114.883C427.448 124.853 422.459 135.1 418.007 145.584C415.283 152.036 412.788 158.574 410.52 165.195C424.918 172.519 443.331 180.932 455.325 182.869C455.325 182.869 428.563 184.444 404.717 183.583C398.999 204.029 394.476 224.791 391.171 245.764C389.392 256.56 387.846 267.401 386.533 278.287C403.502 288.413 421.716 298.46 430.989 300.943C430.989 300.943 406.666 303.098 384.301 300.75C382.399 323.278 382.325 345.923 384.081 368.462C384.829 377.448 385.934 386.463 387.422 395.431C397.432 395.393 407.407 394.264 417.172 392.066C408.701 399.062 399.793 405.512 390.502 411.376C394.141 428.185 399.519 444.57 406.551 460.265C412.543 473.45 420.291 478.499 428.626 478.525C443.494 478.569 460.226 462.607 472.157 448.287C477.172 442.137 481.619 435.546 485.446 428.595C470.947 415.584 464.401 393.409 464.401 393.409L496.584 406.88C509.578 380.06 520.433 352.257 529.048 323.728C511.725 318.564 487.897 304.745 487.897 304.745C497.59 306.935 519.643 303.823 535.235 301.095Z" fill="#019961"/>
<path d="M260.144 399.269C253.524 392.607 247.752 384.383 246.953 375.024C246.153 365.664 251.839 355.307 261.061 353.522C266.94 352.382 272.85 354.746 278.748 355.786C284.646 356.827 291.89 355.874 294.69 350.581C297.859 344.595 293.241 337.41 288.061 333.047C266.574 314.945 231.475 313.243 218.049 288.565C215.507 283.891 214.009 278.222 215.913 273.256C218.882 265.524 228.396 262.859 236.647 262.133C244.899 261.406 254.094 261.217 260.016 255.422C266.747 248.833 266.031 237.171 260.622 229.458C255.213 221.746 246.317 217.276 237.465 214.062C228.613 210.847 219.327 208.522 211.229 203.71C206.427 200.854 201.985 196.966 199.887 191.792C197.788 186.619 198.574 180.013 202.828 176.398C208.867 171.266 220.773 171.97 221.974 164.135C222.86 158.341 216.431 154.516 211.451 151.429C200.913 144.907 192.689 133.553 192.758 121.162C192.789 115.445 194.538 109.87 197.777 105.159C201.016 100.448 205.596 96.8188 210.923 94.7424C216.249 92.666 222.077 92.2381 227.65 93.5141C233.222 94.7902 238.283 97.7113 242.176 101.899C250.621 110.985 252.502 124.751 260.971 133.817C266.191 133.976 268.438 127.515 271.308 123.155C278.402 112.375 295.727 112.802 305.393 121.354C315.058 129.907 318.373 143.612 318.863 156.51C319.353 169.409 317.549 182.397 319.278 195.183C319.809 199.111 322.111 204.055 326.012 203.352C327.894 203.013 329.236 201.383 330.32 199.81C335.046 192.954 338.219 185.059 343.476 178.6C348.734 172.14 357.093 167.136 365.164 169.187C369.116 170.19 372.495 172.763 375.352 175.672C388.916 189.493 391.942 210.581 390.715 229.905C389.488 249.23 384.748 268.373 385.692 287.716C385.859 291.162 386.779 295.344 390.081 296.341C391.908 296.73 393.813 296.379 395.382 295.366C404.468 290.398 407.556 278.081 416.649 273.127C423.033 269.648 431.222 270.734 437.428 274.522C443.634 278.309 448.096 284.422 451.44 290.879C461.479 310.273 462.469 333.032 461.37 354.842C460.1 380.098 456.273 405.389 447.778 429.203C444.356 438.802 432.067 478.636 432.067 478.636C432.067 478.636 395.556 457.008 388.969 454.148C360.815 441.923 330.165 436.936 301.755 425.406C286.475 419.206 271.844 411.043 260.144 399.269Z" fill="url(#paint0_linear_2370_19)"/>
<path d="M298.702 385.457C276.4 379.838 253.586 376.49 230.609 375.467C231.178 387.439 228.66 405.209 228.66 405.209C227.742 397.877 219.168 385.333 211.452 375.318C192.858 375.739 174.362 378.144 156.279 382.491C156.971 395.692 155.19 411.461 155.19 411.461C154.538 406.923 147.164 395.985 140.527 386.891C116.849 394.304 94.2482 404.919 71.7726 415.502L71.8412 415.554C91.9622 430.935 112.261 446.413 133.792 459.665C141.86 452.062 151.255 442.816 154.47 438.103C154.47 438.103 153.689 454.678 148.256 468.096C156.311 472.546 164.59 476.577 173.06 480.174C178.274 482.374 183.556 484.39 188.904 486.223C194.822 474.591 201.617 459.711 203.184 450.023C203.184 450.023 204.456 471.646 203.76 490.912C220.279 495.534 237.054 499.189 253.999 501.86C262.723 503.301 271.482 504.55 280.277 505.608C288.458 491.897 296.576 477.181 298.582 469.689C298.582 469.689 300.323 489.341 298.426 507.412C316.627 508.948 334.923 509.007 353.133 507.59C360.393 506.985 367.681 506.09 374.922 504.89C374.893 496.804 373.982 488.744 372.205 480.855C377.858 487.7 383.069 494.897 387.808 502.404C401.388 499.464 414.626 495.118 427.307 489.437C437.957 484.596 442.039 478.337 442.06 471.606C442.095 459.591 429.199 446.074 417.63 436.436C412.661 432.387 407.337 428.793 401.722 425.7C391.208 437.415 373.292 442.705 373.292 442.705L384.177 416.703C362.508 406.204 340.044 397.434 316.994 390.473C312.822 404.47 301.656 423.721 301.656 423.721C303.421 415.873 300.907 398.055 298.702 385.457Z" fill="#019961"/>
<defs>
<linearGradient id="paint0_linear_2370_19" x1="282.613" y1="128.374" x2="414.828" y2="535.287" gradientUnits="userSpaceOnUse">
<stop stop-color="#B5D653"/>
<stop offset="0.995" stop-color="#019961"/>
</linearGradient>
</defs>
</svg>
