<svg width="201" height="455" viewBox="0 0 201 455" fill="none" xmlns="http://www.w3.org/2000/svg">
<path d="M64.5096 134.31C68.7084 130.676 75.4467 131.609 79.9139 134.907C84.3811 138.205 87.1121 143.288 89.7026 148.2C94.8073 157.89 101.29 176.97 103.748 184.43C103.861 180.381 104.025 176.332 104.302 172.282C105.019 162.082 106.427 151.942 108.518 141.933C109.691 136.96 110.753 131.963 112.279 127.081C112.861 124.898 113.532 122.739 114.239 120.593C106.225 115.659 100.494 107.734 95.503 99.7274C91.5502 93.3863 87.7695 86.1442 89.1119 78.7925C89.6111 76.063 90.963 73.313 93.3911 71.9694C97.2207 69.8509 102.118 72.0022 105.162 75.1408C109.979 80.1021 112 87.1099 113.226 93.914C114.41 100.479 114.789 113.248 114.902 118.589C115.591 116.558 116.298 114.534 116.992 112.506C121.997 98.9189 128.307 85.8483 135.833 73.477C124.213 64.4966 121.248 46.0288 129.695 33.9638C130.319 32.9256 131.219 32.0806 132.294 31.5227C135.747 30.0452 138.922 34.1562 140.097 37.7204C142.938 46.3461 139.022 64.098 137.276 71.0929C144.949 58.8105 153.806 47.3088 163.722 36.7521C166.081 31.7514 172.626 15.5572 175.278 11.3671C177.783 7.40451 181.019 3.68592 185.323 1.82536C189.627 -0.0351986 195.164 0.387271 198.378 3.80086C203.195 8.91292 200.649 17.4795 196.259 22.961C190.589 30.0402 170.711 36.0407 164.69 37.726C155.222 47.965 146.749 59.0797 139.383 70.9206C142.657 68.5829 154.936 59.8417 160.674 56.463C167.327 52.5486 176.102 50.1788 182.523 54.4638C185.524 56.4664 187.637 60.5357 185.925 63.7134C184.544 66.2754 181.373 67.1813 178.523 67.7752C165.529 70.475 152.276 71.7281 139.005 71.5113C130.868 84.6693 124.125 98.6397 118.887 113.196C118.138 115.441 117.37 117.68 116.632 119.929C121.136 115.431 140.008 97.0019 151.555 92.161C156.879 89.9293 164.444 89.1923 167.116 94.3076C168.533 97.0168 167.809 100.462 166.043 102.959C164.277 105.455 161.637 107.181 158.987 108.707C147.038 115.578 130.188 120.028 116.323 120.879C115.598 123.122 114.907 125.377 114.32 127.666C112.845 132.507 111.829 137.465 110.702 142.393C108.706 152.307 107.386 162.346 106.748 172.439C106.433 177.559 106.276 182.685 106.213 187.817C110.244 174.501 117.212 162.259 126.603 151.991C130.651 147.583 135.364 143.436 141.141 141.87C146.917 140.303 153.945 142.016 156.99 147.168C160.486 153.085 157.595 160.793 153.36 166.208C142.466 180.14 124.403 186.067 107.236 190.342L106.201 190.507C106.111 204.747 106.654 219.03 106.567 233.351C106.506 241.443 106.174 249.532 105.572 257.619C110.932 246.851 128.551 213.092 144.402 201.251C148.326 198.319 152.994 195.539 157.818 196.365C162.39 197.149 165.954 201.227 166.997 205.743C168.039 210.258 166.884 215.064 164.726 219.166C162.059 224.231 157.965 228.384 153.857 232.363C139.871 245.902 124.531 258.703 105.316 260.809C103.527 282.892 99.5943 304.749 93.5717 326.071C99.0271 315.988 109.175 298.052 116.862 289.275C122.434 282.911 128.669 276.788 136.481 273.545C141.798 271.337 147.606 270.571 153.36 270.332C158.203 270.132 163.432 270.414 167.261 273.382C171.246 276.472 172.813 281.968 172.192 286.971C171.571 291.975 169.069 296.556 166.16 300.671C160.223 308.936 152.54 315.795 143.655 320.761C134.771 325.727 124.903 328.679 114.75 329.407C109.707 329.733 98.072 332.693 91.4319 333.271C89.3457 340.006 87.0371 346.669 84.5062 353.26C78.5796 368.662 71.3369 383.526 62.8582 397.686C74.4502 388.037 112.079 357.503 135.38 347.991C145.109 344.02 157.152 341.14 165.393 347.658C173.186 353.822 173.523 366.242 168.428 374.769C163.333 383.296 154.232 388.598 145.099 392.499C118.71 403.768 88.7302 407.766 60.862 401.001C59.4438 403.288 57.9919 405.555 56.5063 407.801C45.194 424.955 31.768 440.618 16.5445 454.423L13.4358 450.946C28.3365 437.625 41.5171 422.498 52.6725 405.916L52.2042 405.902L25.5758 381.793C20.9111 377.57 16.2235 373.321 12.2868 368.412C8.06306 363.191 4.82985 357.243 2.74646 350.859C-0.753846 339.946 0.446388 326.128 9.85893 319.586C11.8679 318.078 14.3068 317.252 16.8189 317.229C20.833 317.357 24.1949 320.221 26.9018 323.182C40.5985 338.165 46.203 358.633 51.2895 378.285C53.5175 386.9 55.7176 396.028 53.5544 404.592C64.5467 388.046 73.7424 370.376 80.9857 351.88C82.5499 347.92 84.0085 343.92 85.4047 339.899C79.3553 336.986 56.7114 325.952 47.1585 319.296C36.0875 311.576 27.3062 300.289 23.7174 287.28C22.4436 282.668 21.8608 277.578 23.8381 273.22C26.3555 267.67 32.7394 264.517 38.8318 264.662C44.9242 264.806 50.6724 267.772 55.3342 271.7C62.5622 277.793 67.5257 286.082 72.3284 294.227C79.6234 306.601 87.0806 320.11 87.3294 334.161C95.0649 310.178 100.071 285.398 102.254 260.293C93.3389 257.234 84.4002 254.072 76.2679 249.314C67.763 244.333 60.1057 237.416 55.8899 228.51C53.8895 224.286 52.6956 219.505 53.6057 214.922C54.5158 210.339 57.8739 206.061 62.4354 205.041C66.7969 204.068 71.2401 206.101 75.0901 208.376C82.5868 212.803 99.0963 238.604 102.856 252.585C103.291 246.169 103.561 239.747 103.667 233.319C103.873 218.042 103.334 202.695 103.654 187.326C85.0448 184.22 68.2642 169.506 62.292 151.615C60.3394 145.757 59.8338 138.354 64.5096 134.31Z" fill="url(#paint0_linear_2370_25)"/>
<defs>
<linearGradient id="paint0_linear_2370_25" x1="317.76" y1="125.786" x2="48.907" y2="512.855" gradientUnits="userSpaceOnUse">
<stop stop-color="#B5D653"/>
<stop offset="0.995" stop-color="#019961"/>
</linearGradient>
</defs>
</svg>
